<?xml version="1.0" encoding="UTF-8"?>
<svg version="1.1" xmlns="http://www.w3.org/2000/svg" width="713" height="275">
<path d="M0 0 C235.29 0 470.58 0 713 0 C713 90.75 713 181.5 713 275 C477.71 275 242.42 275 0 275 C0 184.25 0 93.5 0 0 Z " fill="#F8FCFE" transform="translate(0,0)"/>
<path d="M0 0 C1.82724609 0.49306641 1.82724609 0.49306641 3.69140625 0.99609375 C17.84242413 5.26058193 30.96479073 12.13142464 42 22 C42.81597656 22.68578125 43.63195312 23.3715625 44.47265625 24.078125 C64.62235828 41.39378857 78.02771833 66.51249878 81 93 C82.50893726 125.70628811 75.83131418 153.92681773 54 179 C53.24976563 179.94939453 53.24976563 179.94939453 52.484375 180.91796875 C44.89174013 190.45239817 34.4523292 197.00838705 24 203 C22.83984375 203.69222656 22.83984375 203.69222656 21.65625 204.3984375 C-4.19124001 218.68736684 -35.15127434 218.8173875 -62.83984375 210.90234375 C-76.68477206 206.30813244 -88.70569764 199.14137937 -100 190 C-100.67675781 189.46503906 -101.35351562 188.93007812 -102.05078125 188.37890625 C-122.65208894 171.52329087 -134.68404961 144.29899722 -137.77294922 118.34570312 C-140.6306206 88.82257767 -132.38156981 59.0309676 -113.55859375 35.9921875 C-99.43022428 19.46954473 -81.14453751 5.98088347 -60 0 C-59.01515625 -0.29648437 -58.0303125 -0.59296875 -57.015625 -0.8984375 C-39.11426821 -5.39440038 -17.78230804 -4.94064127 0 0 Z " fill="#37A9F4" transform="translate(147,21)"/>
<path d="M0 0 C1.34384766 0.64388672 1.34384766 0.64388672 2.71484375 1.30078125 C24.95408334 12.62779711 42.6317374 32.62765555 50.50390625 56.37890625 C58.57208536 82.26350023 56.35684889 108.97905527 43.99316406 133.18017578 C36.2542559 147.36056454 25.34587434 159.00062993 12 168 C11.34 168 10.68 168 10 168 C10 145.89 10 123.78 10 101 C13.63 100.67 17.26 100.34 21 100 C23.85998345 98.72482126 23.85998345 98.72482126 25 96 C25.70980216 92.11509632 25.90133804 88.52364281 23.84643555 85.04998779 C22.15886835 83.10241522 20.38362999 81.34462159 18.5 79.5859375 C17.830896 78.92719635 17.16179199 78.2684552 16.47241211 77.5897522 C14.33520589 75.49609338 12.16862867 73.43604153 10 71.375 C8.57221474 69.98382462 7.14641136 68.59061213 5.72265625 67.1953125 C0.53448171 62.13721762 -4.67058206 57.12729186 -10.14550781 52.37866211 C-13.30724731 49.63402068 -16.30478564 46.78734375 -19.234375 43.79296875 C-20.13800781 42.87708984 -21.04164063 41.96121094 -21.97265625 41.01757812 C-23.37137519 39.59230123 -24.77004999 38.16697625 -26.16552734 36.73852539 C-27.53819726 35.33564246 -28.91745296 33.93921301 -30.296875 32.54296875 C-31.10479492 31.71821045 -31.91271484 30.89345215 -32.74511719 30.04370117 C-35.63608751 27.42348543 -37.8911324 26.23208857 -41.6875 25.4375 C-52.13813339 27.21213586 -61.39616517 40.20965508 -68.5625 47.5 C-71.10203935 50.07632573 -73.64480527 52.64940407 -76.19140625 55.21875 C-76.79786987 55.83071228 -77.4043335 56.44267456 -78.0291748 57.07318115 C-81.63963414 60.69548337 -85.32751248 64.15725392 -89.23120117 67.46484375 C-92.60542461 70.39336232 -95.7267901 73.58274851 -98.875 76.75 C-99.53757813 77.40871094 -100.20015625 78.06742187 -100.8828125 78.74609375 C-101.51703125 79.38160156 -102.15125 80.01710938 -102.8046875 80.671875 C-103.37171387 81.2400293 -103.93874023 81.80818359 -104.52294922 82.39355469 C-107.05112517 85.14320721 -107.97561003 86.66463795 -108.25 90.4375 C-107.9706317 94.55685624 -107.9706317 94.55685624 -106 98 C-101.39090008 100.59263776 -101.39090008 100.59263776 -93 101 C-93 123.11 -93 145.22 -93 168 C-97.6655497 166.13378012 -100.35690919 164.17623422 -103.875 160.8125 C-104.40456299 160.31274658 -104.93412598 159.81299316 -105.47973633 159.2980957 C-106.52633875 158.3075813 -107.57014154 157.31409864 -108.61083984 156.31738281 C-109.72629942 155.25955858 -110.86883329 154.23031789 -112.01953125 153.2109375 C-126.28309782 140.18332401 -136.04544509 117.07997125 -137.17700195 98.01831055 C-137.77007303 67.71025196 -132.63816483 43.0908875 -111.265625 20.30078125 C-82.22613484 -9.18932168 -37.79719036 -18.76105082 0 0 Z " fill="#F7FBFE" transform="translate(160,40)"/>
<path d="M0 0 C5.39303888 0.35171993 5.39303888 0.35171993 7.6640625 2.77734375 C10.05664607 6.75798718 9.61882776 10.50159822 9 15 C4.1951604 33.24059478 -6.76542147 56.11152246 -22.0703125 67.546875 C-25.45380341 69.4840894 -28.28088681 70.28197265 -32.1875 70.0625 C-37.71544273 68.5219258 -39.89898222 65.65152667 -43 61 C-43.4140625 58.51953125 -43.4140625 58.51953125 -43.625 55.8125 C-43.69976563 54.91144531 -43.77453125 54.01039063 -43.8515625 53.08203125 C-43.90054688 52.39496094 -43.94953125 51.70789063 -44 51 C-44.59167969 51.89203125 -45.18335938 52.7840625 -45.79296875 53.703125 C-46.59073397 54.88569462 -47.38893425 56.06797082 -48.1875 57.25 C-48.57486328 57.83652344 -48.96222656 58.42304688 -49.36132812 59.02734375 C-52.26226951 63.2948443 -55.29325891 66.64662945 -60 69 C-64.63466801 69.41197049 -67.35466537 68.95567673 -71 66 C-73.98276719 61.41932181 -74.54091237 57.32541655 -75 52 C-75.49628906 52.79664063 -75.99257813 53.59328125 -76.50390625 54.4140625 C-85.79995474 68.9137814 -85.79995474 68.9137814 -92.0390625 70.52734375 C-95.88944148 70.8229721 -97.82523986 70.13296967 -100.875 67.8125 C-106.35924778 60.55393676 -105.963566 51.71553348 -105 43 C-101.66957791 29.23227296 -93.20886806 16.2332032 -81.00390625 8.78125 C-77.09772781 7.25837342 -73.10038787 7.33594347 -69 8 C-66.48730269 9.41957506 -65.01550812 10.87841251 -63 13 C-62.46375 12.030625 -61.9275 11.06125 -61.375 10.0625 C-59 7 -59 7 -56.0625 5.9375 C-52.49631363 6.01027931 -50.84102878 6.91100825 -48 9 C-48.48085966 15.19314084 -50.58257093 19.81159147 -53.375 25.3125 C-57.86968767 34.20763189 -61.48482339 42.51600489 -61.1875 52.625 C-61.16042969 53.83414063 -61.13335938 55.04328125 -61.10546875 56.2890625 C-61.05326172 57.63097656 -61.05326172 57.63097656 -61 59 C-58.1948228 58.65941557 -57.13934107 58.14829232 -55.17578125 56.05859375 C-47.89028734 45.81002684 -41.53839488 35.15793682 -36.9375 23.4375 C-34.54928307 17.63280608 -31.73919136 12.9414738 -26 10 C-23.31640625 9.7734375 -23.31640625 9.7734375 -21 10 C-20.505 10.495 -20.505 10.495 -20 11 C-20.45075869 17.87406998 -22.4087129 24.09077765 -24.5 30.625 C-28.04845175 41.7733764 -28.04845175 41.7733764 -29.0625 53.375 C-29.05347656 54.24898437 -29.04445313 55.12296875 -29.03515625 56.0234375 C-29.02355469 56.67570312 -29.01195312 57.32796875 -29 58 C-23.53258782 57.08480274 -21.14086282 53.29166478 -18 49 C-13.18353667 41.28083919 -8.83795684 33.24955848 -5 25 C-4.60683594 24.18015625 -4.21367188 23.3603125 -3.80859375 22.515625 C-1.1173626 16.47676487 -0.5859701 11.55547344 -1 5 C-1 1 -1 1 0 0 Z " fill="#36A8F3" transform="translate(595,103)"/>
<path d="M0 0 C2.375 1.5 2.375 1.5 4 3 C3.73038196 9.740451 1.43042402 14.8745226 -1.3046875 20.9921875 C-3.22737709 25.41014053 -4.79028107 29.9310078 -6.3125 34.5 C-6.56668701 35.2532959 -6.82087402 36.0065918 -7.08276367 36.78271484 C-8.88804251 42.2789633 -10.16298169 47.54706175 -10.0625 53.375 C-10.041875 54.57125 -10.02125 55.7675 -10 57 C-7.00336722 56.66589857 -5.37800738 56.3450005 -3.12109375 54.28515625 C1.58688969 48.06974424 4.25163965 42.17985243 6.73291016 34.82861328 C7.58780315 32.30068194 8.44817816 29.77472338 9.3125 27.25 C9.60777588 26.38624756 9.90305176 25.52249512 10.20727539 24.63256836 C12.85584075 17.06067034 16.16429606 10.04183945 20 3 C26.6953125 2.875 26.6953125 2.875 29.4375 4 C31.84620902 7.08314754 31.43540308 10.27751729 31 14 C30.06624986 17.43074876 28.8134581 20.69860532 27.5 24 C27.16613281 24.87011719 26.83226562 25.74023438 26.48828125 26.63671875 C25.67059616 28.76269999 24.84109676 30.88319721 24 33 C24.33 33.33 24.66 33.66 25 34 C25.44988281 33.42894531 25.89976562 32.85789063 26.36328125 32.26953125 C48.85711786 3.91557689 48.85711786 3.91557689 57.25390625 2.6640625 C63.42416911 2.55965873 63.42416911 2.55965873 66.125 4.625 C68.42954927 10.88020515 64.1775961 17.47667012 61.625 23.125 C56.81654782 34.08487345 53.27577964 43.87601466 54 56 C56.68809781 55.91506011 58.47508908 55.4589173 60.51855469 53.67236328 C62.20044064 51.84848633 63.79652335 49.97659652 65.375 48.0625 C65.94645752 47.38823975 66.51791504 46.71397949 67.10668945 46.01928711 C70.95155059 41.42895468 74.4921107 36.70215676 77.73046875 31.66015625 C78.35888672 30.83837891 78.35888672 30.83837891 79 30 C79.66 30 80.32 30 81 30 C82.11592197 37.25349282 79.53560769 41.05224829 75.359375 46.89453125 C61.37936077 65.2953778 61.37936077 65.2953778 55.08203125 66.30859375 C50.49957371 66.56887103 47.68307113 66.27893433 44.0625 63.3125 C40.74463923 60.27701036 39.28572177 57.0432429 38.6640625 52.59765625 C38.47831209 40.54245448 42.69045192 29.66261704 48 19 C36.72457971 30.79527274 25.99073329 42.68326951 18 57 C17.00449225 58.6693538 16.00558286 60.33669579 15 62 C10.16743695 61.58578031 8.17320782 59.53586014 5 56 C4.46890625 56.62648437 3.9378125 57.25296875 3.390625 57.8984375 C2.68421875 58.71570313 1.9778125 59.53296875 1.25 60.375 C0.55390625 61.18710938 -0.1421875 61.99921875 -0.859375 62.8359375 C-4.15719879 66.16986885 -6.20728127 66.9104995 -10.875 67.4375 C-14.05167887 67.35452704 -15.86547189 66.76845573 -18.375 64.8125 C-24.2142891 58.55611882 -23.63873251 51.28930029 -23.4375 43.18359375 C-22.6364362 29.74324526 -15.85753763 11.59776702 -7.4453125 1.05078125 C-4.9936985 -0.73160839 -2.91537357 -0.35698452 0 0 Z " fill="#36A9F3" transform="translate(354,108)"/>
<path d="M0 0 C3.8710733 3.31806283 3.8710733 3.31806283 4.625 6.25 C4.18055556 12.69444444 4.18055556 12.69444444 1.625 15.25 C-0.75073242 15.59716797 -0.75073242 15.59716797 -3.73046875 15.7421875 C-9.56022578 16.06862289 -15.36734978 16.51807479 -21.18457031 17.01953125 C-23.84505975 17.21171843 -26.45243337 17.27650211 -29.1171875 17.28125 C-33.56854277 17.68178094 -35.71514933 18.71173471 -39.375 21.25 C-41.18527741 24.2005419 -41.18527741 24.2005419 -42.2734375 27.671875 C-42.70841553 28.91662598 -43.14339355 30.16137695 -43.59155273 31.44384766 C-46.97959062 41.18759861 -46.97959062 41.18759861 -48.375 51.25 C-47.80056152 51.03794922 -47.22612305 50.82589844 -46.63427734 50.60742188 C-44.00972397 49.64496225 -41.38002688 48.69739494 -38.75 47.75 C-37.84636719 47.41613281 -36.94273437 47.08226562 -36.01171875 46.73828125 C-27.28731207 43.61787302 -27.28731207 43.61787302 -22.375 44.25 C-18.61234749 46.61259576 -16.16666888 49.16897645 -14.375 53.25 C-14.375 55.9375 -14.375 55.9375 -15.375 58.25 C-18.81352643 59.91063256 -22.24593964 60.74226861 -25.98046875 61.46875 C-27.04716797 61.67886719 -28.11386719 61.88898438 -29.21289062 62.10546875 C-30.31826172 62.31816406 -31.42363281 62.53085938 -32.5625 62.75 C-33.64853516 62.96269531 -34.73457031 63.17539063 -35.85351562 63.39453125 C-37.99752857 63.81431997 -40.14189063 64.23233016 -42.28662109 64.6484375 C-46.65278139 65.49888959 -51.01424052 66.37233203 -55.375 67.25 C-55.68630859 68.53003906 -55.68630859 68.53003906 -56.00390625 69.8359375 C-56.31199219 71.08632812 -56.62007813 72.33671875 -56.9375 73.625 C-57.10805908 74.31746826 -57.27861816 75.00993652 -57.4543457 75.72338867 C-58.62316838 80.40720361 -59.86810872 85.06453642 -61.1640625 89.71484375 C-61.47657959 90.84422363 -61.78909668 91.97360352 -62.11108398 93.13720703 C-62.73295122 95.37605674 -63.36235981 97.61282904 -64.00024414 99.84716797 C-65.88565421 106.66081459 -67.00642779 113.18731198 -67.375 120.25 C-70.375 121.25 -70.375 121.25 -73.9375 119.5625 C-76.95360399 117.88256251 -78.07215288 116.43969339 -79.375 113.25 C-80.53727874 104.05408654 -78.30742496 95.44612968 -75.9375 86.625 C-75.61201172 85.36042969 -75.28652344 84.09585938 -74.95117188 82.79296875 C-72.57455008 73.64910017 -72.57455008 73.64910017 -71.375 71.25 C-72.27992188 71.88228516 -72.27992188 71.88228516 -73.203125 72.52734375 C-74.00234375 73.07519531 -74.8015625 73.62304688 -75.625 74.1875 C-76.41390625 74.73277344 -77.2028125 75.27804688 -78.015625 75.83984375 C-80.22876793 77.16259971 -81.8150688 77.99291289 -84.375 78.25 C-86.375 76.25 -86.375 76.25 -86.84765625 73.94140625 C-86.16610097 70.06048405 -83.78347952 68.47858909 -80.8125 66.1875 C-80.29880859 65.76662109 -79.78511719 65.34574219 -79.25585938 64.91210938 C-76.50184577 62.70547735 -73.89901337 61.00837132 -70.703125 59.51171875 C-66.12684234 56.97623647 -65.17343894 52.89875783 -63.6875 48.125 C-63.11037765 46.41502586 -62.53226106 44.70538694 -61.953125 42.99609375 C-61.68435547 42.17737793 -61.41558594 41.35866211 -61.13867188 40.51513672 C-59.92918865 36.92767337 -58.46917131 33.45327813 -57.00390625 29.96484375 C-56.2602275 28.24147059 -56.2602275 28.24147059 -56.375 26.25 C-57.1484375 26.53875 -57.921875 26.8275 -58.71875 27.125 C-64.82168108 29.30030217 -69.88389473 30.97123392 -76.375 30.25 C-78.375 28.25 -78.375 28.25 -78.5703125 26.0859375 C-78.54710937 25.27382812 -78.52390625 24.46171875 -78.5 23.625 C-78.48195313 22.80773437 -78.46390625 21.99046875 -78.4453125 21.1484375 C-78.42210937 20.52195312 -78.39890625 19.89546875 -78.375 19.25 C-76.4259375 19.0025 -76.4259375 19.0025 -74.4375 18.75 C-69.47931793 17.76804483 -65.24169769 15.8665903 -60.75 13.625 C-46.3139891 6.51210316 -15.90590818 -8.24750795 0 0 Z " fill="#37A9F4" transform="translate(347.375,66.75)"/>
<path d="M0 0 C3.87838974 2.68370719 7.09706084 5.23152876 9.75 9.2109375 C10.65547139 15.64454997 10.63234485 21.93573246 6.70703125 27.3203125 C2.08873402 31.78190104 -4.6465778 36.93971217 -11.15625 37.4296875 C-12.19265625 37.32140625 -12.19265625 37.32140625 -13.25 37.2109375 C-14.015625 35.546875 -14.015625 35.546875 -14.25 33.2109375 C-12.484375 30.625 -12.484375 30.625 -10 27.8359375 C-6.72932684 24.13820192 -4.16536787 20.78759208 -2.25 16.2109375 C-2.45435808 13.42446193 -2.45435808 13.42446193 -3.25 11.2109375 C-13.33514338 9.99376502 -21.51100033 14.63128958 -29.34765625 20.55078125 C-35.3476849 25.77501527 -40.13902856 31.40772661 -44.25 38.2109375 C-44.8996875 39.28021484 -44.8996875 39.28021484 -45.5625 40.37109375 C-47.97354032 44.71598933 -49.02850042 48.15068478 -48.25 53.2109375 C-44.40953717 58.50739998 -37.7649359 59.90881669 -31.8671875 62.03515625 C-22.29782421 65.641628 -14.70940955 70.72455718 -10.25 80.2109375 C-9.01976235 87.25684404 -11.42939719 92.30555611 -15.25 98.2109375 C-23.36059134 108.93837294 -34.1771852 117.52460852 -47.25 121.2109375 C-53.49821277 122.05925882 -58.95181857 121.95843168 -64.25 118.2109375 C-67.72822112 114.73271638 -68.79625711 112.08867355 -69.25 107.2109375 C-65.5 106.0859375 -65.5 106.0859375 -63.25 107.2109375 C-53.47460168 108.15694379 -45.33617004 104.70186809 -37.4375 99.0234375 C-32.27291498 94.67877747 -27.31463776 89.48322581 -25.64453125 82.78125 C-25.39562933 78.78536509 -26.05967024 76.55760957 -28 73.0234375 C-33.6660894 67.24562239 -42.3063507 64.56315939 -49.6875 61.7109375 C-55.48737036 59.36517841 -58.42494751 56.86104248 -61.25 51.2109375 C-62.47410898 39.17969498 -59.45351276 32.07551744 -52.125 22.7734375 C-39.97193039 8.52083427 -20.56129816 -12.07976267 0 0 Z " fill="#37A9F3" transform="translate(495.25,66.7890625)"/>
<path d="M0 0 C4.10007872 0.38679988 6.11398775 1.78344381 9.3125 4.3125 C11.82866271 9.34482542 10.02573232 15.15975979 8.5546875 20.28515625 C8.18342428 21.60791455 7.81334236 22.93100488 7.44433594 24.25439453 C7.2549646 24.92625793 7.06559326 25.59812134 6.8704834 26.29034424 C5.98183226 29.51085407 5.18515901 32.7531731 4.3828125 35.99609375 C-8.68990269 88.30687736 -8.68990269 88.30687736 -24.8671875 98.71484375 C-30.92875316 101.83444073 -35.972696 102.9344544 -42.6875 102.3125 C-47.93762689 100.49514839 -50.66775575 97.84211637 -53.6875 93.3125 C-54 89.9375 -54 89.9375 -53.6875 87.3125 C-53.0275 87.3125 -52.3675 87.3125 -51.6875 87.3125 C-50.72859265 88.44470386 -49.8186033 89.61874715 -48.9375 90.8125 C-46.80941253 93.33125087 -46.03949117 94.20537225 -42.8125 95.1875 C-34.47554774 92.85315337 -29.86468362 85.34631581 -25.69921875 78.2265625 C-18.19725248 64.14707763 -11.61639223 47.17002452 -9.6875 31.3125 C-10.12578125 32.11171875 -10.5640625 32.9109375 -11.015625 33.734375 C-14.72582515 40.15935575 -18.59600761 45.69773232 -23.875 50.9375 C-24.37354492 51.4334668 -24.87208984 51.92943359 -25.38574219 52.44042969 C-29.35450391 56.25096835 -32.65780773 59.05878847 -38.1875 59.75 C-42.32607387 59.23267827 -43.84203294 58.32056518 -46.6875 55.3125 C-49.45863536 50.43002341 -49.32259136 45.70811238 -47.92163086 40.42358398 C-46.83481995 36.99110086 -45.68172004 33.58845657 -44.5 30.1875 C-44.11263672 29.04023438 -43.72527344 27.89296875 -43.32617188 26.7109375 C-35.70050304 4.32550304 -35.70050304 4.32550304 -33.6875 2.3125 C-30.07700881 1.71075147 -28.86084201 2.19191425 -25.8125 4.3125 C-23.40613749 7.70971766 -23.51588709 9.03405707 -24.14453125 13.02978516 C-25.14174322 17.22220058 -26.87470626 21.07500502 -28.625 25 C-29.34263367 26.64965879 -30.06008697 28.29939606 -30.77734375 29.94921875 C-31.81930582 32.33562368 -32.86889273 34.71736402 -33.93359375 37.09375 C-34.7746432 39.56896289 -34.89026075 41.52001488 -34.8125 44.125 C-34.78542969 45.31029297 -34.78542969 45.31029297 -34.7578125 46.51953125 C-34.73460937 47.11121094 -34.71140625 47.70289063 -34.6875 48.3125 C-23.91936224 44.88627435 -17.72130072 31.04687342 -12.80029297 21.55371094 C-10.07059918 16.05599506 -7.6339154 10.42637743 -5.21875 4.78515625 C-3.27676848 0.38101959 -3.27676848 0.38101959 0 0 Z " fill="#37A9F3" transform="translate(696.6875,112.6875)"/>
<path d="M0 0 C2.1875 2.25 2.1875 2.25 3 5 C2.625 7.1875 2.625 7.1875 2 9 C2.495 9.99 2.495 9.99 3 11 C2.47692547 14.63131531 0.75821734 17.61003888 -0.94140625 20.82421875 C-1.52470703 21.93474609 -2.10800781 23.04527344 -2.70898438 24.18945312 C-3.32064453 25.34380859 -3.93230469 26.49816406 -4.5625 27.6875 C-5.77388302 29.98215118 -6.98361435 32.27767535 -8.19140625 34.57421875 C-8.72967041 35.59088623 -9.26793457 36.60755371 -9.82250977 37.6550293 C-11.0747898 39.71161066 -11.0747898 39.71161066 -11 41 C-10.34 41.33 -9.68 41.66 -9 42 C-8.42779049 45.84197813 -8.36931341 47.93816608 -10.3828125 51.328125 C-18.06891255 61.37661944 -18.06891255 61.37661944 -22.91015625 62.40625 C-26.94443621 62.70787841 -28.57712912 62.32174958 -31.875 59.8125 C-37.35924778 52.55393676 -36.963566 43.71553348 -36 35 C-32.66589661 21.21705475 -24.20672349 8.26869632 -12.015625 0.78125 C-8.12477516 -0.72683133 -4.08150899 -0.68953821 0 0 Z " fill="#37A9F3" transform="translate(526,111)"/>
<path d="M0 0 C3.625 0.25 3.625 0.25 5.31640625 1.46875 C8.09131711 5.24594209 7.25901661 9.82245068 6.625 14.25 C1.35444354 31.9383069 -10.10554302 56.60873522 -26.3359375 66.4375 C-29.9930708 67.89474852 -33.51932797 67.91154511 -37.375 67.25 C-41.21175172 65.21400701 -43.84617813 62.30647402 -45.375 58.25 C-46.92420019 46.55480841 -44.95114896 36.05386052 -41.625 24.8125 C-41.27775879 23.63357178 -40.93051758 22.45464355 -40.57275391 21.23999023 C-37.56783695 11.68601985 -37.56783695 11.68601985 -33.375 8.25 C-30.578125 7.859375 -30.578125 7.859375 -27.625 8 C-26.14773438 8.05414063 -26.14773438 8.05414063 -24.640625 8.109375 C-23.51914062 8.17898437 -23.51914062 8.17898437 -22.375 8.25 C-20.83587438 12.96638493 -22.20925591 16.14415309 -24.0625 20.5 C-28.66076217 32.00435666 -31.58799895 43.85473346 -32.375 56.25 C-26.5065669 54.99247862 -23.64246252 52.04579176 -20.375 47.25 C-7.04060421 26.61308323 -7.04060421 26.61308323 -3.875 3.25 C-4.1225 2.26 -4.1225 2.26 -4.375 1.25 C-3.375 0.25 -3.375 0.25 0 0 Z " fill="#36A8F3" transform="translate(649.375,104.75)"/>
<path d="M0 0 C0.97164734 2.56903262 1.11728109 3.69252894 0.12304688 6.29907227 C-0.57208008 7.54515259 -0.57208008 7.54515259 -1.28125 8.81640625 C-1.79042969 9.7408252 -2.29960938 10.66524414 -2.82421875 11.61767578 C-3.37722656 12.58946777 -3.93023438 13.56125977 -4.5 14.5625 C-5.05300781 15.55233887 -5.60601563 16.54217773 -6.17578125 17.56201172 C-16.70557119 36.28198078 -16.70557119 36.28198078 -22 41 C-22.66 41 -23.32 41 -24 41 C-24.87611189 28.51540552 -20.71346843 15.49290251 -14 5 C-9.8336797 0.30910668 -6.17365066 -1.50169881 0 0 Z " fill="#F4FAFD" transform="translate(528,121)"/>
<path d="M0 0 C5.28 0 10.56 0 16 0 C16 4.95 16 9.9 16 15 C10.72 15 5.44 15 0 15 C0 10.05 0 5.1 0 0 Z " fill="#F1F8FC" transform="translate(120,149)"/>
<path d="M0 0 C4.95 0 9.9 0 15 0 C15 4.95 15 9.9 15 15 C10.05 15 5.1 15 0 15 C0 10.05 0 5.1 0 0 Z " fill="#F7FBFD" transform="translate(100,149)"/>
<path d="M0 0 C2.0078125 0.23046875 2.0078125 0.23046875 5.0078125 2.23046875 C5.0655576 5.05997862 5.03938816 6.64652195 4.0078125 9.23046875 C0.30171141 12.98158321 -4.11549873 16.17875402 -8.9921875 18.23046875 C-11.2421875 17.85546875 -11.2421875 17.85546875 -12.9921875 17.23046875 C-14.01190195 10.77227722 -10.46798976 6.34307539 -6.9921875 1.23046875 C-5.11574989 -0.64596886 -2.49413049 0.05061888 0 0 Z " fill="#35A7F2" transform="translate(366.9921875,77.76953125)"/>
<path d="M0 0 C4.95 0 9.9 0 15 0 C15 4.62 15 9.24 15 14 C10.05 14 5.1 14 0 14 C0 9.38 0 4.76 0 0 Z " fill="#F7FBFD" transform="translate(121,129)"/>
<path d="M0 0 C4.95 0 9.9 0 15 0 C15 4.62 15 9.24 15 14 C10.05 14 5.1 14 0 14 C0 9.38 0 4.76 0 0 Z " fill="#F8FCFD" transform="translate(100,129)"/>
<path d="M0 0 C1.31625194 2.63250388 0.74813658 3.80179056 0.0625 6.625 C-0.13214844 7.44226563 -0.32679688 8.25953125 -0.52734375 9.1015625 C-0.76130859 10.04128906 -0.76130859 10.04128906 -1 11 C-2.32 10.34 -3.64 9.68 -5 9 C-3.35 6.03 -1.7 3.06 0 0 Z " fill="#E1F3F9" transform="translate(687,143)"/>
<path d="M0 0 C0 3.86695678 -1.41909971 6.5088452 -3 10 C-3.99 9.67 -4.98 9.34 -6 9 C-4.68775452 5.06326356 -3.08089673 2.77280706 0 0 Z " fill="#DEF1F8" transform="translate(402,126)"/>
<path d="M0 0 C0.66 0.66 1.32 1.32 2 2 C0.35 3.65 -1.3 5.3 -3 7 C-2.625 4.0625 -2.625 4.0625 -2 1 C-1.34 0.67 -0.68 0.34 0 0 Z " fill="#E3F4F8" transform="translate(380,137)"/>
</svg>
